<svg width="86" height="129" viewBox="0 0 86 129" fill="none" xmlns="http://www.w3.org/2000/svg">
<g clip-path="url(#clip0_42:525)">
<path d="M55.7443 85.1051H52.9581H50.1826L25.3402 84.9343C25.3402 84.9343 26.9187 76.0723 36.6755 70.9794C42.1435 68.2765 47.9992 66.457 54.0281 65.5875L67.5351 2.13382C67.7037 1.52167 68.066 0.981775 68.567 0.596301C69.0681 0.210826 69.6803 0.000881093 70.3107 -0.00158442H72.4294C72.6978 -0.037207 72.9708 -0.00709217 73.2253 0.0862085C73.4797 0.179509 73.708 0.333246 73.891 0.534393C74.0739 0.73554 74.2061 0.978169 74.2762 1.24172C74.3464 1.50528 74.3524 1.78199 74.2939 2.04841L60.7551 65.5768C64.5477 66.2067 70.8298 67.7122 75.6711 70.9794C83.0867 76.0723 80.6608 84.9343 80.6608 84.9343L55.7443 85.1051ZM78.0547 128.998C77.6309 127.504 76.9953 124.792 76.0631 119.923C74.9472 114.215 74.2708 108.429 74.0397 102.615C74.0397 102.615 71.8256 117.339 72.3023 124.685C72.4082 126.393 72.5565 127.813 72.7048 128.956H69.3466C68.6766 126.356 68.2405 123.701 68.0436 121.023C67.666 117.832 67.6447 114.609 67.98 111.413C67.98 111.413 65.0244 122.315 65.7871 128.934H25.425L35.9446 101.43L21.1875 128.998H16.3356L21.2405 119.784L13.8248 128.998H10.0429C11.4201 126.98 13.4329 123.863 15.6258 119.88C17.4896 116.698 19.1286 113.387 20.5307 109.972C20.5307 109.972 12.7972 122.496 6.9389 128.977H0C0 128.977 4.80956 124.706 12.151 112.289C16.3499 105.248 20.1692 97.9842 23.5923 90.5291H79.8662C79.8933 97.8096 80.4136 105.08 81.4235 112.289C83.1185 124.728 86 128.977 86 128.977L78.0547 128.998Z" fill="white"/>
<path fill-rule="evenodd" clip-rule="evenodd" d="M26.8232 50.0106C29.5412 52.7952 31.1378 56.4968 31.3044 60.3993H33.3172C33.4787 56.4956 35.0761 52.7923 37.7983 50.0106C40.5633 47.0317 44.1546 45.0351 47.4704 45.0351V43.0064C44.1758 43.0064 40.5633 41.0205 37.7983 38.0416C35.0761 35.2599 33.4787 31.5565 33.3172 27.6528H31.3044C31.1378 31.5554 29.5412 35.257 26.8232 38.0416C24.0582 41.0205 20.467 43.0064 17.1511 43.0064V45.0351C20.4352 45.0351 24.0582 47.0317 26.8232 50.0106Z" fill="#7F7CFF"/>
<path fill-rule="evenodd" clip-rule="evenodd" d="M13.359 30.5575C14.95 32.1801 15.883 34.3426 15.9756 36.622H17.1515C17.2441 34.3426 18.1772 32.1801 19.7682 30.5575C20.475 29.7218 21.3385 29.0351 22.3093 28.5368C23.2801 28.0384 24.339 27.7382 25.4252 27.6533V26.4682C24.3408 26.3819 23.284 26.0811 22.3151 25.5827C21.3462 25.0844 20.4843 24.3984 19.7788 23.564C18.1888 21.9363 17.2561 19.7709 17.1621 17.4888H15.9756C15.8816 19.7709 14.949 21.9363 13.359 23.564C12.6514 24.3987 11.7877 25.0848 10.817 25.5831C9.84638 26.0814 8.78786 26.3822 7.7019 26.4682V27.6533C8.78786 27.7393 9.84638 28.04 10.817 28.5383C11.7877 29.0366 12.6514 29.7227 13.359 30.5575Z" fill="#58D6BF"/>
<path fill-rule="evenodd" clip-rule="evenodd" d="M8.47493 52.8403C9.63315 54.012 10.3168 55.5764 10.3924 57.2286H11.2505C11.3176 55.5808 11.9896 54.0169 13.1362 52.8403C13.6437 52.2294 14.2665 51.7261 14.9684 51.3596C15.6703 50.993 16.4375 50.7705 17.2254 50.7049V49.8401C16.4375 49.7745 15.6703 49.552 14.9684 49.1854C14.2665 48.8189 13.6437 48.3156 13.1362 47.7047C11.9896 46.5281 11.3176 44.9642 11.2505 43.3164H10.3924C10.3325 44.991 9.64768 46.581 8.47493 47.7687C7.96739 48.3796 7.34461 48.8829 6.64268 49.2495C5.94075 49.616 5.17362 49.8386 4.38574 49.9041V50.769C5.17362 50.8346 5.94075 51.0571 6.64268 51.4236C7.34461 51.7902 7.96739 52.2935 8.47493 52.9044V52.8403Z" fill="#FF8D36"/>
</g>
<defs>
<clipPath id="clip0_42:525">
<rect width="86" height="129" fill="white"/>
</clipPath>
</defs>
</svg>
