<svg width="247" height="247" viewBox="0 0 247 247" fill="none" xmlns="http://www.w3.org/2000/svg">
<path d="M242 123.5C242 188.947 188.947 242 123.5 242C58.0534 242 5 188.947 5 123.5C5 58.0534 58.0534 5 123.5 5C188.947 5 242 58.0534 242 123.5Z" fill="white" stroke="#5F27BC" stroke-width="10"/>
<path d="M233 124.5C233 184.976 183.976 234 123.5 234C63.024 234 14 184.976 14 124.5C14 64.024 63.024 15 123.5 15C183.976 15 233 64.024 233 124.5Z" fill="white" stroke="#D3C3FF" stroke-width="10"/>
<path d="M209.836 123.356C209.836 171.119 171.119 209.836 123.356 209.836C75.5936 209.836 36.8758 171.119 36.8758 123.356C36.8758 75.5954 75.5936 36.8759 123.356 36.8759C171.119 36.8759 209.836 75.5954 209.836 123.356Z" fill="#414952"/>
<path d="M123.356 36.8759C123.296 36.8759 123.238 36.8776 123.179 36.8776V209.835C123.238 209.835 123.296 209.836 123.356 209.836C171.119 209.836 209.836 171.119 209.836 123.356C209.836 75.5954 171.119 36.8759 123.356 36.8759Z" fill="#23272B"/>
<path d="M192.689 134.138C192.689 119.004 161.647 106.734 123.356 106.734C85.0647 106.734 54.0226 119.004 54.0226 134.138C54.0226 149.272 85.0647 161.542 123.356 161.542C161.647 161.542 192.689 149.272 192.689 134.138Z" fill="white"/>
<path d="M123.356 106.734C123.296 106.734 123.238 106.736 123.179 106.736V161.54C123.238 161.54 123.296 161.542 123.356 161.542C161.647 161.542 192.689 149.272 192.689 134.138C192.689 119.004 161.647 106.734 123.356 106.734Z" fill="#DCE1EB"/>
<path d="M99.3581 135.598C99.3581 142.36 93.8776 147.84 87.1161 147.84C80.3563 147.84 74.8741 142.36 74.8741 135.598C74.8741 128.836 80.3563 123.356 87.1161 123.356C93.8776 123.356 99.3581 128.836 99.3581 135.598Z" fill="#414952"/>
<path d="M171.838 135.598C171.838 142.36 166.356 147.84 159.596 147.84C152.834 147.84 147.354 142.36 147.354 135.598C147.354 128.836 152.834 123.356 159.596 123.356C166.356 123.356 171.838 128.836 171.838 135.598Z" fill="#23272B"/>
<path d="M200.076 33.6819C192.573 15.8904 152.864 53.9728 152.864 53.9728L168.782 82.6213C168.782 82.6213 231.165 64.6323 213.894 53.9728C203.314 47.4432 178.162 70.1532 183.108 58.7476C187.985 47.5 205.193 45.8177 200.076 33.6819Z" fill="#23272B"/>
</svg>
