<svg width="97" height="96" viewBox="0 0 97 96" fill="none" xmlns="http://www.w3.org/2000/svg">
<g filter="url(#filter0_d_44_5540)">
<path fill-rule="evenodd" clip-rule="evenodd" d="M5.00002 50.555C5.52381 63.3097 25.3818 72.8447 49.3522 71.8496C50.5979 71.7963 51.8295 71.7181 53.0505 71.6115C31.2567 72.3542 13.3028 63.6367 12.825 52.0086C12.3401 40.2809 29.8127 30.0281 51.8649 29.1148C70.3709 28.3471 86.1943 34.4029 91.1031 43.3052C87.3516 32.4305 69.0827 24.7684 47.4694 25.6782C23.4919 26.6555 4.48685 37.8003 5.00002 50.555Z" fill="url(#paint0_linear_44_5540)"/>
</g>
<g filter="url(#filter1_d_44_5540)">
<path fill-rule="evenodd" clip-rule="evenodd" d="M77.3253 17.0105C67.9962 8.33564 47.2252 15.6281 30.9205 33.3013C30.0711 34.2182 29.2524 35.1469 28.4643 36.0875C43.3994 20.1344 62.2558 13.5953 70.7567 21.5203C79.3214 29.4987 74.1295 49.1336 59.1484 65.3924C46.5633 79.0355 31.0797 85.9477 21.3578 83.1011C31.6566 88.1476 49.9963 80.6561 64.7013 64.7172C80.9918 47.044 86.6509 25.6783 77.3253 17.0105Z" fill="url(#paint1_linear_44_5540)"/>
</g>
<g filter="url(#filter2_d_44_5540)">
<path fill-rule="evenodd" clip-rule="evenodd" d="M49.5928 91.9931C62.2983 91.5453 71.914 71.6652 71.0753 47.5915C71.0328 46.337 70.9585 45.1038 70.8629 43.8742C71.4646 65.7623 62.6734 83.7376 51.0899 84.1463C39.4108 84.5549 29.3067 66.9386 28.5351 44.7982C27.8733 26.2117 34.0208 10.3473 42.8968 5.48926C32.0495 9.19591 24.2988 27.4946 25.0562 49.2014C25.8808 73.3 36.8733 92.4374 49.5928 91.9931Z" fill="url(#paint2_linear_44_5540)"/>
</g>
<g filter="url(#filter3_d_44_5540)">
<path fill-rule="evenodd" clip-rule="evenodd" d="M16.626 19.168C7.93037 28.4755 15.0617 49.3756 32.552 65.8689C33.465 66.7242 34.3852 67.5534 35.3125 68.3566C19.5103 53.2564 13.1399 34.2789 21.0746 25.7923C29.073 17.2312 48.6018 22.5939 64.6942 37.7368C78.1994 50.4595 84.9839 66.0502 82.0889 75.7877C87.1817 65.4815 79.8345 47.0016 64.0394 32.1501C46.5456 15.6675 25.3109 9.84984 16.6153 19.1609" fill="url(#paint3_linear_44_5540)"/>
</g>
<g filter="url(#filter4_d_44_5540)">
<path fill-rule="evenodd" clip-rule="evenodd" d="M48.0568 38.1348C50.1472 38.1341 52.1909 38.7559 53.9293 39.9217C55.6677 41.0875 57.0227 42.7447 57.823 44.6839C58.6233 46.6231 58.8329 48.7571 58.4253 50.8159C58.0176 52.8747 57.011 54.7659 55.5329 56.2502C54.0548 57.7344 52.1714 58.7452 50.1212 59.1545C48.0709 59.5639 45.9457 59.3534 44.0146 58.5498C42.0834 57.7462 40.433 56.3855 39.2721 54.6399C38.1111 52.8942 37.4919 50.8421 37.4926 48.743C37.4926 45.9295 38.6056 43.2313 40.5868 41.2418C42.5679 39.2524 45.255 38.1348 48.0568 38.1348Z" fill="url(#paint4_linear_44_5540)"/>
</g>
<g filter="url(#filter5_d_44_5540)">
<path fill-rule="evenodd" clip-rule="evenodd" d="M82.3438 71.9209C82.7968 71.9202 83.2399 72.0545 83.6169 72.3067C83.9939 72.5589 84.2879 72.9178 84.4618 73.3379C84.6356 73.7579 84.6815 74.2204 84.5935 74.6666C84.5056 75.1129 84.2878 75.5229 83.9677 75.8448C83.6476 76.1668 83.2396 76.3861 82.7953 76.4751C82.3511 76.5641 81.8905 76.5188 81.4719 76.3449C81.0532 76.1709 80.6954 75.8762 80.4436 75.498C80.1919 75.1198 80.0575 74.6751 80.0575 74.2202C80.0575 73.611 80.2983 73.0267 80.7269 72.5956C81.1556 72.1645 81.7371 71.9218 82.3438 71.9209Z" fill="url(#paint5_linear_44_5540)"/>
</g>
<g filter="url(#filter6_d_44_5540)">
<path fill-rule="evenodd" clip-rule="evenodd" d="M22.8901 81.1646C23.343 81.1646 23.7857 81.2994 24.1623 81.5521C24.5389 81.8047 24.8323 82.1638 25.0057 82.584C25.179 83.0041 25.2243 83.4664 25.136 83.9124C25.0476 84.3585 24.8295 84.7682 24.5093 85.0897C24.189 85.4113 23.781 85.6303 23.3369 85.719C22.8927 85.8077 22.4323 85.7622 22.0139 85.5882C21.5955 85.4141 21.2378 85.1194 20.9862 84.7413C20.7346 84.3632 20.6003 83.9186 20.6003 83.4639C20.6003 82.8541 20.8416 82.2692 21.271 81.838C21.7004 81.4068 22.2829 81.1646 22.8901 81.1646Z" fill="url(#paint6_linear_44_5540)"/>
</g>
<g filter="url(#filter7_d_44_5540)">
<path fill-rule="evenodd" clip-rule="evenodd" d="M33.9252 64.8276C34.3781 64.8276 34.8208 64.9625 35.1973 65.2151C35.5739 65.4678 35.8674 65.8269 36.0407 66.2471C36.214 66.6672 36.2593 67.1295 36.171 67.5755C36.0826 68.0216 35.8646 68.4313 35.5443 68.7528C35.2241 69.0744 34.8161 69.2934 34.3719 69.3821C33.9277 69.4708 33.4673 69.4253 33.0489 69.2513C32.6305 69.0772 32.2729 68.7825 32.0213 68.4044C31.7697 68.0263 31.6354 67.5817 31.6354 67.127C31.6349 66.8249 31.6938 66.5257 31.8087 66.2465C31.9236 65.9673 32.0923 65.7137 32.305 65.5001C32.5177 65.2864 32.7703 65.1171 33.0484 65.0017C33.3264 64.8863 33.6244 64.8272 33.9252 64.8276Z" fill="url(#paint7_linear_44_5540)"/>
</g>
<g filter="url(#filter8_d_44_5540)">
<path fill-rule="evenodd" clip-rule="evenodd" d="M51.6172 68.9639C52.0702 68.9639 52.5131 69.0988 52.8897 69.3516C53.2664 69.6044 53.5598 69.9637 53.733 70.3841C53.9062 70.8045 53.9514 71.267 53.8627 71.7131C53.7741 72.1592 53.5557 72.5689 53.2351 72.8903C52.9145 73.2117 52.5062 73.4305 52.0617 73.5188C51.6173 73.6071 51.1568 73.5611 50.7385 73.3865C50.3201 73.2119 49.9628 72.9166 49.7116 72.538C49.4604 72.1595 49.3267 71.7146 49.3274 71.2596C49.3283 70.6504 49.57 70.0665 49.9993 69.6361C50.4286 69.2056 51.0105 68.9639 51.6172 68.9639Z" fill="url(#paint8_linear_44_5540)"/>
</g>
<g filter="url(#filter9_d_44_5540)">
<path fill-rule="evenodd" clip-rule="evenodd" d="M70.909 42.6372C71.3618 42.6372 71.8045 42.7721 72.1811 43.0247C72.5577 43.2774 72.8512 43.6365 73.0245 44.0566C73.1978 44.4768 73.2431 44.9391 73.1548 45.3851C73.0664 45.8311 72.8483 46.2408 72.5281 46.5624C72.2079 46.884 71.7999 47.103 71.3557 47.1917C70.9115 47.2804 70.4511 47.2349 70.0327 47.0608C69.6143 46.8868 69.2567 46.5921 69.005 46.214C68.7534 45.8359 68.6191 45.3913 68.6191 44.9365C68.6191 44.3267 68.8604 43.7419 69.2898 43.3107C69.7192 42.8795 70.3017 42.6372 70.909 42.6372Z" fill="url(#paint9_linear_44_5540)"/>
</g>
<g filter="url(#filter10_d_44_5540)">
<path fill-rule="evenodd" clip-rule="evenodd" d="M90.7102 39.9756C91.1631 39.9756 91.6058 40.1104 91.9824 40.3631C92.3589 40.6157 92.6524 40.9748 92.8257 41.395C92.999 41.8151 93.0444 42.2775 92.956 42.7235C92.8677 43.1695 92.6496 43.5792 92.3294 43.9008C92.0091 44.2223 91.6011 44.4413 91.1569 44.5301C90.7128 44.6188 90.2524 44.5732 89.8339 44.3992C89.4155 44.2252 89.0579 43.9305 88.8063 43.5523C88.5547 43.1742 88.4204 42.7297 88.4204 42.2749C88.4204 41.6651 88.6617 41.0803 89.0911 40.649C89.5205 40.2178 90.1029 39.9756 90.7102 39.9756Z" fill="url(#paint10_linear_44_5540)"/>
</g>
<g filter="url(#filter11_d_44_5540)">
<path fill-rule="evenodd" clip-rule="evenodd" d="M29.6747 32.3809C30.1277 32.3802 30.5708 32.5144 30.9478 32.7666C31.3248 33.0189 31.6189 33.3777 31.7927 33.7978C31.9666 34.2179 32.0124 34.6803 31.9245 35.1266C31.8365 35.5729 31.6187 35.9829 31.2986 36.3048C30.9785 36.6267 30.5705 36.8461 30.1263 36.9351C29.682 37.0241 29.2214 36.9788 28.8028 36.8048C28.3842 36.6309 28.0263 36.3362 27.7746 35.958C27.5228 35.5798 27.3884 35.1351 27.3884 34.6802C27.3884 34.071 27.6292 33.4867 28.0578 33.0556C28.4865 32.6245 29.068 32.3818 29.6747 32.3809Z" fill="url(#paint11_linear_44_5540)"/>
</g>
<g filter="url(#filter12_d_44_5540)">
<path fill-rule="evenodd" clip-rule="evenodd" d="M41.5838 4C42.0366 4 42.4793 4.13485 42.8559 4.38751C43.2325 4.64016 43.526 4.99927 43.6993 5.41941C43.8726 5.83956 43.9179 6.30188 43.8296 6.74791C43.7412 7.19393 43.5231 7.60363 43.2029 7.9252C42.8827 8.24677 42.4747 8.46576 42.0305 8.55448C41.5863 8.6432 41.1259 8.59766 40.7075 8.42363C40.2891 8.2496 39.9315 7.95489 39.6798 7.57677C39.4282 7.19865 39.2939 6.75409 39.2939 6.29933C39.2939 5.68951 39.5352 5.10467 39.9646 4.67346C40.394 4.24225 40.9765 4 41.5838 4" fill="url(#paint12_linear_44_5540)"/>
</g>
<defs>
<filter id="filter0_d_44_5540" x="0.989868" y="21.605" width="94.1132" height="54.3159" filterUnits="userSpaceOnUse" color-interpolation-filters="sRGB">
<feFlood flood-opacity="0" result="BackgroundImageFix"/>
<feColorMatrix in="SourceAlpha" type="matrix" values="0 0 0 0 0 0 0 0 0 0 0 0 0 0 0 0 0 0 127 0" result="hardAlpha"/>
<feOffset/>
<feGaussianBlur stdDeviation="2"/>
<feComposite in2="hardAlpha" operator="out"/>
<feColorMatrix type="matrix" values="0 0 0 0 0.980392 0 0 0 0 0.8 0 0 0 0 0.0862745 0 0 0 0.24 0"/>
<feBlend mode="normal" in2="BackgroundImageFix" result="effect1_dropShadow_44_5540"/>
<feBlend mode="normal" in="SourceGraphic" in2="effect1_dropShadow_44_5540" result="shape"/>
</filter>
<filter id="filter1_d_44_5540" x="17.3578" y="9.35498" width="68.4612" height="79.3047" filterUnits="userSpaceOnUse" color-interpolation-filters="sRGB">
<feFlood flood-opacity="0" result="BackgroundImageFix"/>
<feColorMatrix in="SourceAlpha" type="matrix" values="0 0 0 0 0 0 0 0 0 0 0 0 0 0 0 0 0 0 127 0" result="hardAlpha"/>
<feOffset/>
<feGaussianBlur stdDeviation="2"/>
<feComposite in2="hardAlpha" operator="out"/>
<feColorMatrix type="matrix" values="0 0 0 0 0.980392 0 0 0 0 0.8 0 0 0 0 0.0862745 0 0 0 0.24 0"/>
<feBlend mode="normal" in2="BackgroundImageFix" result="effect1_dropShadow_44_5540"/>
<feBlend mode="normal" in="SourceGraphic" in2="effect1_dropShadow_44_5540" result="shape"/>
</filter>
<filter id="filter2_d_44_5540" x="21.0051" y="1.48926" width="54.1211" height="94.5112" filterUnits="userSpaceOnUse" color-interpolation-filters="sRGB">
<feFlood flood-opacity="0" result="BackgroundImageFix"/>
<feColorMatrix in="SourceAlpha" type="matrix" values="0 0 0 0 0 0 0 0 0 0 0 0 0 0 0 0 0 0 127 0" result="hardAlpha"/>
<feOffset/>
<feGaussianBlur stdDeviation="2"/>
<feComposite in2="hardAlpha" operator="out"/>
<feColorMatrix type="matrix" values="0 0 0 0 0.980392 0 0 0 0 0.8 0 0 0 0 0.0862745 0 0 0 0.24 0"/>
<feBlend mode="normal" in2="BackgroundImageFix" result="effect1_dropShadow_44_5540"/>
<feBlend mode="normal" in="SourceGraphic" in2="effect1_dropShadow_44_5540" result="shape"/>
</filter>
<filter id="filter3_d_44_5540" x="8.92053" y="10.7231" width="78.7681" height="69.0645" filterUnits="userSpaceOnUse" color-interpolation-filters="sRGB">
<feFlood flood-opacity="0" result="BackgroundImageFix"/>
<feColorMatrix in="SourceAlpha" type="matrix" values="0 0 0 0 0 0 0 0 0 0 0 0 0 0 0 0 0 0 127 0" result="hardAlpha"/>
<feOffset/>
<feGaussianBlur stdDeviation="2"/>
<feComposite in2="hardAlpha" operator="out"/>
<feColorMatrix type="matrix" values="0 0 0 0 0.980392 0 0 0 0 0.8 0 0 0 0 0.0862745 0 0 0 0.24 0"/>
<feBlend mode="normal" in2="BackgroundImageFix" result="effect1_dropShadow_44_5540"/>
<feBlend mode="normal" in="SourceGraphic" in2="effect1_dropShadow_44_5540" result="shape"/>
</filter>
<filter id="filter4_d_44_5540" x="33.4926" y="34.1348" width="29.1356" height="29.2236" filterUnits="userSpaceOnUse" color-interpolation-filters="sRGB">
<feFlood flood-opacity="0" result="BackgroundImageFix"/>
<feColorMatrix in="SourceAlpha" type="matrix" values="0 0 0 0 0 0 0 0 0 0 0 0 0 0 0 0 0 0 127 0" result="hardAlpha"/>
<feOffset/>
<feGaussianBlur stdDeviation="2"/>
<feComposite in2="hardAlpha" operator="out"/>
<feColorMatrix type="matrix" values="0 0 0 0 0.980392 0 0 0 0 0.8 0 0 0 0 0.0862745 0 0 0 0.24 0"/>
<feBlend mode="normal" in2="BackgroundImageFix" result="effect1_dropShadow_44_5540"/>
<feBlend mode="normal" in="SourceGraphic" in2="effect1_dropShadow_44_5540" result="shape"/>
</filter>
<filter id="filter5_d_44_5540" x="76.0575" y="67.9209" width="12.5796" height="12.5986" filterUnits="userSpaceOnUse" color-interpolation-filters="sRGB">
<feFlood flood-opacity="0" result="BackgroundImageFix"/>
<feColorMatrix in="SourceAlpha" type="matrix" values="0 0 0 0 0 0 0 0 0 0 0 0 0 0 0 0 0 0 127 0" result="hardAlpha"/>
<feOffset/>
<feGaussianBlur stdDeviation="2"/>
<feComposite in2="hardAlpha" operator="out"/>
<feColorMatrix type="matrix" values="0 0 0 0 0.980392 0 0 0 0 0.8 0 0 0 0 0.0862745 0 0 0 0.24 0"/>
<feBlend mode="normal" in2="BackgroundImageFix" result="effect1_dropShadow_44_5540"/>
<feBlend mode="normal" in="SourceGraphic" in2="effect1_dropShadow_44_5540" result="shape"/>
</filter>
<filter id="filter6_d_44_5540" x="16.6003" y="77.1646" width="12.5796" height="12.5986" filterUnits="userSpaceOnUse" color-interpolation-filters="sRGB">
<feFlood flood-opacity="0" result="BackgroundImageFix"/>
<feColorMatrix in="SourceAlpha" type="matrix" values="0 0 0 0 0 0 0 0 0 0 0 0 0 0 0 0 0 0 127 0" result="hardAlpha"/>
<feOffset/>
<feGaussianBlur stdDeviation="2"/>
<feComposite in2="hardAlpha" operator="out"/>
<feColorMatrix type="matrix" values="0 0 0 0 0.980392 0 0 0 0 0.8 0 0 0 0 0.0862745 0 0 0 0.24 0"/>
<feBlend mode="normal" in2="BackgroundImageFix" result="effect1_dropShadow_44_5540"/>
<feBlend mode="normal" in="SourceGraphic" in2="effect1_dropShadow_44_5540" result="shape"/>
</filter>
<filter id="filter7_d_44_5540" x="27.6354" y="60.8276" width="12.5796" height="12.5986" filterUnits="userSpaceOnUse" color-interpolation-filters="sRGB">
<feFlood flood-opacity="0" result="BackgroundImageFix"/>
<feColorMatrix in="SourceAlpha" type="matrix" values="0 0 0 0 0 0 0 0 0 0 0 0 0 0 0 0 0 0 127 0" result="hardAlpha"/>
<feOffset/>
<feGaussianBlur stdDeviation="2"/>
<feComposite in2="hardAlpha" operator="out"/>
<feColorMatrix type="matrix" values="0 0 0 0 0.980392 0 0 0 0 0.8 0 0 0 0 0.0862745 0 0 0 0.24 0"/>
<feBlend mode="normal" in2="BackgroundImageFix" result="effect1_dropShadow_44_5540"/>
<feBlend mode="normal" in="SourceGraphic" in2="effect1_dropShadow_44_5540" result="shape"/>
</filter>
<filter id="filter8_d_44_5540" x="45.3274" y="64.9639" width="12.5796" height="12.5986" filterUnits="userSpaceOnUse" color-interpolation-filters="sRGB">
<feFlood flood-opacity="0" result="BackgroundImageFix"/>
<feColorMatrix in="SourceAlpha" type="matrix" values="0 0 0 0 0 0 0 0 0 0 0 0 0 0 0 0 0 0 127 0" result="hardAlpha"/>
<feOffset/>
<feGaussianBlur stdDeviation="2"/>
<feComposite in2="hardAlpha" operator="out"/>
<feColorMatrix type="matrix" values="0 0 0 0 0.980392 0 0 0 0 0.8 0 0 0 0 0.0862745 0 0 0 0.24 0"/>
<feBlend mode="normal" in2="BackgroundImageFix" result="effect1_dropShadow_44_5540"/>
<feBlend mode="normal" in="SourceGraphic" in2="effect1_dropShadow_44_5540" result="shape"/>
</filter>
<filter id="filter9_d_44_5540" x="64.6191" y="38.6372" width="12.5796" height="12.5986" filterUnits="userSpaceOnUse" color-interpolation-filters="sRGB">
<feFlood flood-opacity="0" result="BackgroundImageFix"/>
<feColorMatrix in="SourceAlpha" type="matrix" values="0 0 0 0 0 0 0 0 0 0 0 0 0 0 0 0 0 0 127 0" result="hardAlpha"/>
<feOffset/>
<feGaussianBlur stdDeviation="2"/>
<feComposite in2="hardAlpha" operator="out"/>
<feColorMatrix type="matrix" values="0 0 0 0 0.980392 0 0 0 0 0.8 0 0 0 0 0.0862745 0 0 0 0.24 0"/>
<feBlend mode="normal" in2="BackgroundImageFix" result="effect1_dropShadow_44_5540"/>
<feBlend mode="normal" in="SourceGraphic" in2="effect1_dropShadow_44_5540" result="shape"/>
</filter>
<filter id="filter10_d_44_5540" x="84.4204" y="35.9756" width="12.5796" height="12.5986" filterUnits="userSpaceOnUse" color-interpolation-filters="sRGB">
<feFlood flood-opacity="0" result="BackgroundImageFix"/>
<feColorMatrix in="SourceAlpha" type="matrix" values="0 0 0 0 0 0 0 0 0 0 0 0 0 0 0 0 0 0 127 0" result="hardAlpha"/>
<feOffset/>
<feGaussianBlur stdDeviation="2"/>
<feComposite in2="hardAlpha" operator="out"/>
<feColorMatrix type="matrix" values="0 0 0 0 0.980392 0 0 0 0 0.8 0 0 0 0 0.0862745 0 0 0 0.24 0"/>
<feBlend mode="normal" in2="BackgroundImageFix" result="effect1_dropShadow_44_5540"/>
<feBlend mode="normal" in="SourceGraphic" in2="effect1_dropShadow_44_5540" result="shape"/>
</filter>
<filter id="filter11_d_44_5540" x="23.3884" y="28.3809" width="12.5796" height="12.5986" filterUnits="userSpaceOnUse" color-interpolation-filters="sRGB">
<feFlood flood-opacity="0" result="BackgroundImageFix"/>
<feColorMatrix in="SourceAlpha" type="matrix" values="0 0 0 0 0 0 0 0 0 0 0 0 0 0 0 0 0 0 127 0" result="hardAlpha"/>
<feOffset/>
<feGaussianBlur stdDeviation="2"/>
<feComposite in2="hardAlpha" operator="out"/>
<feColorMatrix type="matrix" values="0 0 0 0 0.980392 0 0 0 0 0.8 0 0 0 0 0.0862745 0 0 0 0.24 0"/>
<feBlend mode="normal" in2="BackgroundImageFix" result="effect1_dropShadow_44_5540"/>
<feBlend mode="normal" in="SourceGraphic" in2="effect1_dropShadow_44_5540" result="shape"/>
</filter>
<filter id="filter12_d_44_5540" x="35.2939" y="0" width="12.5796" height="12.5986" filterUnits="userSpaceOnUse" color-interpolation-filters="sRGB">
<feFlood flood-opacity="0" result="BackgroundImageFix"/>
<feColorMatrix in="SourceAlpha" type="matrix" values="0 0 0 0 0 0 0 0 0 0 0 0 0 0 0 0 0 0 127 0" result="hardAlpha"/>
<feOffset/>
<feGaussianBlur stdDeviation="2"/>
<feComposite in2="hardAlpha" operator="out"/>
<feColorMatrix type="matrix" values="0 0 0 0 0.980392 0 0 0 0 0.8 0 0 0 0 0.0862745 0 0 0 0.24 0"/>
<feBlend mode="normal" in2="BackgroundImageFix" result="effect1_dropShadow_44_5540"/>
<feBlend mode="normal" in="SourceGraphic" in2="effect1_dropShadow_44_5540" result="shape"/>
</filter>
<linearGradient id="paint0_linear_44_5540" x1="4.98987" y1="25.605" x2="43.6331" y2="97.4526" gradientUnits="userSpaceOnUse">
<stop offset="0.0955377" stop-color="#FED32C"/>
<stop offset="0.930845" stop-color="#F5C300"/>
</linearGradient>
<linearGradient id="paint1_linear_44_5540" x1="21.3578" y1="13.355" x2="91.7031" y2="73.0028" gradientUnits="userSpaceOnUse">
<stop offset="0.0955377" stop-color="#FED32C"/>
<stop offset="0.930845" stop-color="#F5C300"/>
</linearGradient>
<linearGradient id="paint2_linear_44_5540" x1="25.0051" y1="5.48926" x2="96.8326" y2="43.782" gradientUnits="userSpaceOnUse">
<stop offset="0.0955377" stop-color="#FED32C"/>
<stop offset="0.930845" stop-color="#F5C300"/>
</linearGradient>
<linearGradient id="paint3_linear_44_5540" x1="12.9205" y1="14.7231" x2="73.3269" y2="84.7286" gradientUnits="userSpaceOnUse">
<stop offset="0.0955377" stop-color="#FED32C"/>
<stop offset="0.930845" stop-color="#F5C300"/>
</linearGradient>
<linearGradient id="paint4_linear_44_5540" x1="37.4926" y1="38.1348" x2="58.7159" y2="59.2702" gradientUnits="userSpaceOnUse">
<stop offset="0.0955377" stop-color="#FED32C"/>
<stop offset="0.930845" stop-color="#F5C300"/>
</linearGradient>
<linearGradient id="paint5_linear_44_5540" x1="80.0575" y1="71.9209" x2="84.6561" y2="76.5005" gradientUnits="userSpaceOnUse">
<stop offset="0.0955377" stop-color="#FED32C"/>
<stop offset="0.930845" stop-color="#F5C300"/>
</linearGradient>
<linearGradient id="paint6_linear_44_5540" x1="20.6003" y1="81.1646" x2="25.199" y2="85.7441" gradientUnits="userSpaceOnUse">
<stop offset="0.0955377" stop-color="#FED32C"/>
<stop offset="0.930845" stop-color="#F5C300"/>
</linearGradient>
<linearGradient id="paint7_linear_44_5540" x1="31.6354" y1="64.8276" x2="36.234" y2="69.4072" gradientUnits="userSpaceOnUse">
<stop offset="0.0955377" stop-color="#FED32C"/>
<stop offset="0.930845" stop-color="#F5C300"/>
</linearGradient>
<linearGradient id="paint8_linear_44_5540" x1="49.3274" y1="68.9639" x2="53.926" y2="73.5434" gradientUnits="userSpaceOnUse">
<stop offset="0.0955377" stop-color="#FED32C"/>
<stop offset="0.930845" stop-color="#F5C300"/>
</linearGradient>
<linearGradient id="paint9_linear_44_5540" x1="68.6191" y1="42.6372" x2="73.2178" y2="47.2168" gradientUnits="userSpaceOnUse">
<stop offset="0.0955377" stop-color="#FED32C"/>
<stop offset="0.930845" stop-color="#F5C300"/>
</linearGradient>
<linearGradient id="paint10_linear_44_5540" x1="88.4204" y1="39.9756" x2="93.019" y2="44.5552" gradientUnits="userSpaceOnUse">
<stop offset="0.0955377" stop-color="#FED32C"/>
<stop offset="0.930845" stop-color="#F5C300"/>
</linearGradient>
<linearGradient id="paint11_linear_44_5540" x1="27.3884" y1="32.3809" x2="31.9871" y2="36.9604" gradientUnits="userSpaceOnUse">
<stop offset="0.0955377" stop-color="#FED32C"/>
<stop offset="0.930845" stop-color="#F5C300"/>
</linearGradient>
<linearGradient id="paint12_linear_44_5540" x1="39.2939" y1="4" x2="43.8926" y2="8.57958" gradientUnits="userSpaceOnUse">
<stop offset="0.0955377" stop-color="#FED32C"/>
<stop offset="0.930845" stop-color="#F5C300"/>
</linearGradient>
</defs>
</svg>
